<svg width="20" height="20" viewBox="0 0 20 20" fill="none" xmlns="http://www.w3.org/2000/svg">
<path d="M9.0099 3.38477V4.44077M4.4559 8.99477H3.3999M5.67769 5.66267L4.93099 4.91597M12.3428 5.66267L13.0895 4.91597M14.6199 8.99477H13.5639M6.36995 8.99482C6.36995 7.53678 7.55192 6.35481 9.00995 6.35481C10.0039 6.35481 10.8696 6.90412 11.32 7.71572M6.0399 16.9148C4.58187 16.9148 3.3999 15.7328 3.3999 14.2748C3.3999 12.8167 4.58187 11.6348 6.0399 11.6348C6.34627 11.6348 6.64044 11.687 6.91402 11.7829C7.3867 10.5389 8.59006 9.65477 9.9999 9.65477C11.4098 9.65477 12.6131 10.5389 13.0858 11.7829C13.3594 11.687 13.6535 11.6348 13.9599 11.6348C15.4179 11.6348 16.5999 12.8167 16.5999 14.2748C16.5999 15.7328 15.4179 16.9148 13.9599 16.9148M6.0399 16.9148C8.60018 16.9148 10.8973 16.9148 13.9599 16.9148M6.0399 16.9148H13.9599" stroke="white" stroke-width="1.4" stroke-linecap="round" stroke-linejoin="round"/>
</svg>
