<svg width="157" height="60" viewBox="0 0 157 60" fill="none" xmlns="http://www.w3.org/2000/svg">
<g clip-path="url(#clip0_158_3892)">
<path d="M31.3036 38.4C30.8431 38.3774 30.3785 38.3668 29.9126 38.3668C29.4467 38.3668 28.9822 38.3788 28.5216 38.4C25.2261 38.558 22.0775 39.2735 19.1671 40.4549C21.8869 43.269 25.6959 45.0173 29.9126 45.0173C34.1293 45.0173 37.9397 43.269 40.6582 40.4549C37.7478 39.2735 34.5992 38.558 31.3036 38.4Z" fill="#3CA474"/>
<path d="M33.9335 29.6735H37.5016C35.4753 28.4655 33.8726 26.3111 32.8191 24.5629H36.0219C32.2182 22.4655 29.9113 17.2845 29.9113 17.2845C29.9113 17.2845 27.6044 22.4668 23.8007 24.5629H27.0036C25.95 26.3111 24.3473 28.4655 22.321 29.6735H25.8892C24.7324 31.3885 23.0516 33.3943 20.9578 34.5505H28.5203V38.4C28.9809 38.3775 29.4454 38.3668 29.9113 38.3668C30.3772 38.3668 30.8417 38.3788 31.3023 38.4V34.5505H38.8635C36.7697 33.3943 35.0889 31.3885 33.9321 29.6735H33.9335Z" fill="#3CA474"/>
<path d="M13.3516 33.2522C13.1477 32.1996 13.0392 31.1137 13.0392 30.0013L10.8634 30H0L8.62928 33.1155C8.6359 33.1619 8.64252 33.2084 8.65046 33.2522C10.0534 42.5615 17.3869 49.9181 26.6687 51.3239V46.6089C19.9506 45.2987 14.6565 39.9889 13.3516 33.2522Z" fill="#F3AE14"/>
<path d="M29.9127 10.8969V0L26.8064 8.65619H26.8051C26.7587 8.6615 26.7151 8.66814 26.6701 8.67611C17.3896 10.0832 10.0534 17.4385 8.65179 26.7478H13.3542C14.6605 20.0097 19.9519 14.7 26.6701 13.3911C27.7196 13.1841 28.8036 13.0765 29.9127 13.0765V10.8969Z" fill="#3CA474"/>
<path d="M48.9593 33.2522H46.4751C45.1674 39.9902 39.8734 45.3 33.1553 46.6088C32.1057 46.8159 31.0218 46.9234 29.9127 46.9234V60L33.0176 51.3451H33.0189C33.0653 51.3385 33.1116 51.3318 33.1553 51.3239C42.437 49.9168 49.7719 42.5615 51.1735 33.2522H48.958H48.9593Z" fill="#B4D1C3"/>
<path d="M51.196 26.8859C51.1894 26.8394 51.1828 26.793 51.1748 26.7492C49.7719 17.4399 42.437 10.0832 33.1566 8.67749V13.3925C39.8747 14.7027 45.1687 20.0124 46.4737 26.7492C46.6802 27.8018 46.7874 28.8877 46.7874 30.0001H59.824L51.196 26.8859Z" fill="#EB974F"/>
<path d="M66.9457 22.3632C66.9457 19.0897 69.5094 16.2278 73.0286 16.2278C75.0112 16.2278 76.4459 17.0508 77.506 18.2163L75.8146 19.9473C75.2336 19.2955 74.3627 18.645 73.0286 18.645C70.8408 18.645 69.3545 20.4623 69.3545 22.3645C69.3545 24.3875 70.9613 26.1012 73.0286 26.1012C74.2423 26.1012 75.2164 25.6048 75.7974 24.8163L77.506 26.5127C76.4459 27.7645 74.9093 28.5185 73.0286 28.5185C69.5081 28.5185 66.9457 25.622 66.9457 22.3658V22.3632Z" fill="white"/>
<path d="M78.1903 23.5791C78.1903 21.1114 79.8143 18.7804 82.5989 18.7977C85.6403 18.815 87.7593 21.2136 86.9056 24.6424H80.8056C80.9247 25.4654 81.8988 26.2539 83.0608 26.2539C83.6935 26.2712 84.7867 25.9791 85.0937 25.5517L86.9056 26.9402C85.9831 27.9862 84.4968 28.3964 82.8213 28.3964C80.0525 28.3964 78.1903 25.9459 78.1903 23.5804V23.5791ZM84.5643 22.5689C84.6504 21.9517 84.154 20.907 82.6849 20.907C81.421 20.907 80.7883 21.8322 80.7883 22.5689H84.5643Z" fill="white"/>
<path d="M88.7678 23.4942C88.7678 20.7862 90.716 18.884 93.3127 18.884C95.9094 18.884 97.8576 20.7862 97.8576 23.4942V28.2239H95.4647V23.4942C95.4647 22.1057 94.5939 21.2827 93.3114 21.2827C92.0289 21.2827 91.158 22.1057 91.158 23.4942V28.2239H88.7651V23.4942H88.7678Z" fill="white"/>
<path d="M100.166 24.4367V21.4539H99.3281V19.0539H100.166V17.1517H102.559V19.0539H104.78V21.4539H102.559V23.9044C102.559 25.7044 103.892 25.8756 105.105 25.8756V28.2756C103.174 28.2756 100.167 27.7619 100.167 24.4367H100.166Z" fill="white"/>
<path d="M106.66 19.0552H108.933V20.1185C109.36 19.2955 110.676 19.0048 111.769 19.0552V21.4552C110.385 21.2149 109.052 22.0897 109.052 23.5287V28.2251H106.659V19.0565L106.66 19.0552Z" fill="white"/>
<path d="M112.693 23.5791C112.693 20.9747 114.812 18.8495 117.426 18.8495C120.04 18.8495 122.143 20.9747 122.143 23.5791V28.3951H119.75V27.2641C119.22 27.8986 118.383 28.3274 117.426 28.3274C114.812 28.3274 112.693 26.2021 112.693 23.5805V23.5791ZM119.75 23.5791C119.75 22.2942 118.707 21.2482 117.426 21.2482C116.145 21.2482 115.084 22.2942 115.084 23.5791C115.084 24.8641 116.127 25.9274 117.426 25.9274C118.724 25.9274 119.75 24.8813 119.75 23.5791Z" fill="white"/>
<path d="M124.005 24.1115V15.7141H126.398V24.061C126.398 25.0553 126.91 25.7747 127.817 25.7747V28.2252C125.544 28.2252 124.006 26.4769 124.006 24.1115H124.005Z" fill="white"/>
<path d="M66.9457 32.1703H72.4145C75.2508 32.1703 76.7212 34.261 76.7212 36.369C76.7212 38.6309 75.2521 40.5676 72.4145 40.5676H69.4922V43.9101H66.9457V32.1703ZM72.2596 38.3747C73.3528 38.3747 74.2595 37.5172 74.2595 36.369C74.2595 35.2207 73.3542 34.3632 72.2596 34.3632H69.4908V38.3734H72.2596V38.3747Z" fill="white"/>
<path d="M77.8144 39.2654C77.8144 36.661 79.9333 34.5358 82.5473 34.5358C85.1612 34.5358 87.2643 36.661 87.2643 39.2654V44.0813H84.8713V42.9504C84.3419 43.5849 83.5042 44.0136 82.5473 44.0136C79.9333 44.0136 77.8144 41.8884 77.8144 39.2667V39.2654ZM84.8713 39.2654C84.8713 37.9805 83.8284 36.9344 82.5473 36.9344C81.2661 36.9344 80.206 37.9805 80.206 39.2654C80.206 40.5504 81.2489 41.6136 82.5473 41.6136C83.8456 41.6136 84.8713 40.5676 84.8713 39.2654Z" fill="white"/>
<path d="M89.3832 34.7416H91.6557V35.8049C92.0832 34.9819 93.3987 34.6912 94.492 34.7416V37.1416C93.1076 36.9013 91.7748 37.7761 91.7748 39.2151V43.9115H89.3819V34.7429L89.3832 34.7416Z" fill="white"/>
<path d="M100.986 38.546L104.114 34.7415H101.312L98.4744 38.0136V32.1703H96.0828V43.9114H98.4744V40.9459L99.3466 40.3287L102.097 43.9114H105.036L100.985 38.5473L100.986 38.546Z" fill="white"/>
<path d="M105.84 42.8827C105.84 42.3172 106.284 41.8712 106.865 41.8712C107.446 41.8712 107.874 42.3172 107.874 42.8827C107.874 43.4482 107.429 43.9115 106.865 43.9115C106.302 43.9115 105.84 43.4655 105.84 42.8827Z" fill="white"/>
<path d="M108.796 38.1863C108.796 34.6208 111.719 32.0681 114.879 32.0681C116.622 32.0681 118.143 32.7371 119.236 33.8854L117.545 35.5818C116.878 34.9128 115.955 34.4854 114.879 34.4854C112.983 34.4854 111.205 36.0451 111.205 38.1876C111.205 40.3301 112.965 41.8898 114.879 41.8898C115.836 41.8898 116.981 41.4783 117.665 40.6221V37.3832H120.058V41.9761C118.913 43.6553 116.555 44.2898 114.881 44.2898C111.548 44.2898 108.798 41.5991 108.798 38.1889L108.796 38.1863Z" fill="white"/>
<path d="M121.732 39.4712V34.7416H124.125V39.4712C124.125 40.8252 124.996 41.6827 126.279 41.6827C127.561 41.6827 128.432 40.8252 128.432 39.4712V34.7416H130.825V39.4712C130.825 42.1792 128.86 44.0814 126.28 44.0814C123.7 44.0814 121.735 42.1792 121.735 39.4712H121.732Z" fill="white"/>
<path d="M132.327 32.6163C132.327 31.9314 132.908 31.3486 133.591 31.3486C134.274 31.3486 134.855 31.9314 134.855 32.6163C134.855 33.3013 134.291 33.9013 133.591 33.9013C132.891 33.9013 132.327 33.284 132.327 32.6163ZM132.448 34.7416H134.72V43.9101H132.448V34.7416Z" fill="white"/>
<path d="M136.327 39.4367C136.327 36.8151 138.463 34.6726 141.077 34.6726C142.034 34.6726 142.905 35.1186 143.435 35.769V31.9128H145.828V39.985C145.828 40.9792 146.392 41.4252 146.837 41.4252V43.9102C145.88 43.9102 145.009 43.7907 144.394 42.6425C143.607 43.6367 142.582 44.2022 141.078 44.2022C138.464 44.2022 136.328 42.077 136.328 39.4381L136.327 39.4367ZM143.435 39.4367C143.435 38.1345 142.392 37.0712 141.077 37.0712C139.761 37.0712 138.718 38.1345 138.718 39.4367C138.718 40.7389 139.778 41.8022 141.077 41.8022C142.375 41.8022 143.435 40.7562 143.435 39.4367Z" fill="white"/>
<path d="M148.094 39.2654C148.094 36.7977 149.718 34.4667 152.503 34.484C155.544 34.5012 157.663 36.8999 156.809 40.3287H150.709C150.828 41.1517 151.803 41.9402 152.965 41.9402C153.597 41.9574 154.69 41.6654 154.997 41.238L156.809 42.6265C155.887 43.6725 154.401 44.0827 152.725 44.0827C149.956 44.0827 148.094 41.6322 148.094 39.2667V39.2654ZM154.468 38.2552C154.554 37.638 154.058 36.5933 152.589 36.5933C151.325 36.5933 150.692 37.5185 150.692 38.2552H154.468Z" fill="white"/>
</g>
<defs>
<clipPath id="clip0_158_3892">
<rect width="157" height="60" fill="white"/>
</clipPath>
</defs>
</svg>
