<svg width="100" height="100" viewBox="0 0 100 100" fill="none" xmlns="http://www.w3.org/2000/svg">
<g clip-path="url(#clip0_59_6428)">
<path d="M52.3258 63.9988C51.5555 63.9617 50.7792 63.9425 49.9994 63.9425C49.2195 63.9425 48.4444 63.9617 47.6741 63.9988C42.1659 64.2612 36.9032 65.4531 32.0371 67.4226C36.5822 72.1114 42.9506 75.0261 50.0006 75.0261C57.0506 75.0261 63.4178 72.1114 67.964 67.4226C63.0979 65.4531 57.8353 64.2624 52.327 63.9988H52.3258Z" fill="white"/>
<path d="M56.7223 49.4543H62.6882C59.3015 47.4405 56.6229 43.8514 54.8607 40.9368H60.2144C53.8556 37.4411 49.9994 28.805 49.9994 28.805C49.9994 28.805 46.1419 37.4411 39.7843 40.9368H45.138C43.377 43.8514 40.6984 47.4417 37.3105 49.4543H43.2764C41.3429 52.3127 38.5337 55.6562 35.0332 57.5825H47.6741V63.9988C48.4444 63.9617 49.2195 63.9425 49.9994 63.9425C50.7792 63.9425 51.5543 63.9617 52.3258 63.9988V57.5825H64.9655C61.4651 55.6562 58.6558 52.3127 56.7223 49.4543Z" fill="white"/>
<path d="M22.3181 55.4202C21.9766 53.6664 21.7969 51.8563 21.7969 50.0018V49.9994H0L14.4247 55.1914C14.4355 55.268 14.4474 55.3459 14.4606 55.4202C16.805 70.9362 29.065 83.195 44.581 85.5406V77.6819C33.3513 75.4993 24.5019 66.6499 22.3193 55.4202H22.3181Z" fill="white"/>
<path d="M50.0018 18.1611V0L44.8098 14.4271H44.8074C44.7307 14.4343 44.6564 14.4474 44.581 14.4606C29.0673 16.805 16.8062 29.065 14.4606 44.581H22.3216C24.5043 33.3513 33.3513 24.5019 44.581 22.3193C46.3348 21.9754 48.1473 21.7957 50.0018 21.7957V18.1623V18.1611Z" fill="white"/>
<path d="M81.8389 55.4202H77.6868C75.5017 66.6499 66.6523 75.4992 55.4226 77.6819C53.6688 78.0257 51.8563 78.2054 50.0018 78.2054V100L55.1914 85.5753H55.1938C55.2705 85.5645 55.3483 85.5525 55.4226 85.5394C70.9386 83.195 83.1974 70.935 85.543 55.419H81.8401L81.8389 55.4202Z" fill="white"/>
<path d="M85.5777 44.8086C85.5669 44.732 85.555 44.6541 85.5418 44.5798C83.1974 29.0638 70.935 16.805 55.4214 14.4594V22.3181C66.6511 24.5007 75.5005 33.3501 77.6831 44.5798C78.027 46.3336 78.2067 48.1437 78.2067 49.9982H99.9988L85.5765 44.8086H85.5777Z" fill="white"/>
</g>
<defs>
<clipPath id="clip0_59_6428">
<rect width="100" height="100" fill="white"/>
</clipPath>
</defs>
</svg>
