<svg width="20" height="20" viewBox="0 0 20 20" fill="none" xmlns="http://www.w3.org/2000/svg">
<path d="M16.6542 5.14375C16.6542 5.90659 16.0358 6.525 15.2729 6.525C14.5101 6.525 13.8917 5.90659 13.8917 5.14375C13.8917 4.38091 14.5101 3.7625 15.2729 3.7625C16.0358 3.7625 16.6542 4.38091 16.6542 5.14375Z" fill="white"/>
<path fill-rule="evenodd" clip-rule="evenodd" d="M10.2083 14.8125C12.7511 14.8125 14.8125 12.7511 14.8125 10.2083C14.8125 7.66552 12.7511 5.60417 10.2083 5.60417C7.66552 5.60417 5.60417 7.66552 5.60417 10.2083C5.60417 12.7511 7.66552 14.8125 10.2083 14.8125ZM10.2083 12.9708C11.734 12.9708 12.9708 11.734 12.9708 10.2083C12.9708 8.68265 11.734 7.44583 10.2083 7.44583C8.68265 7.44583 7.44583 8.68265 7.44583 10.2083C7.44583 11.734 8.68265 12.9708 10.2083 12.9708Z" fill="white"/>
<path fill-rule="evenodd" clip-rule="evenodd" d="M1 9.84C1 6.74571 1 5.19857 1.60219 4.0167C2.13189 2.97711 2.97711 2.13189 4.0167 1.60219C5.19857 1 6.74571 1 9.84 1H10.5767C13.671 1 15.2181 1 16.4 1.60219C17.4396 2.13189 18.2848 2.97711 18.8145 4.0167C19.4167 5.19857 19.4167 6.74571 19.4167 9.84V10.5767C19.4167 13.671 19.4167 15.2181 18.8145 16.4C18.2848 17.4396 17.4396 18.2848 16.4 18.8145C15.2181 19.4167 13.671 19.4167 10.5767 19.4167H9.84C6.74571 19.4167 5.19857 19.4167 4.0167 18.8145C2.97711 18.2848 2.13189 17.4396 1.60219 16.4C1 15.2181 1 13.671 1 10.5767V9.84ZM9.84 2.84167H10.5767C12.1542 2.84167 13.2266 2.8431 14.0555 2.91082C14.8629 2.97679 15.2758 3.09636 15.5639 3.24313C16.2569 3.59626 16.8204 4.15974 17.1735 4.8528C17.3203 5.14084 17.4399 5.55375 17.5058 6.36116C17.5736 7.19008 17.575 8.26247 17.575 9.84V10.5767C17.575 12.1542 17.5736 13.2266 17.5058 14.0555C17.4399 14.8629 17.3203 15.2758 17.1735 15.5639C16.8204 16.2569 16.2569 16.8204 15.5639 17.1735C15.2758 17.3203 14.8629 17.4399 14.0555 17.5058C13.2266 17.5736 12.1542 17.575 10.5767 17.575H9.84C8.26247 17.575 7.19008 17.5736 6.36116 17.5058C5.55375 17.4399 5.14084 17.3203 4.8528 17.1735C4.15974 16.8204 3.59626 16.2569 3.24313 15.5639C3.09636 15.2758 2.97679 14.8629 2.91082 14.0555C2.8431 13.2266 2.84167 12.1542 2.84167 10.5767V9.84C2.84167 8.26247 2.8431 7.19008 2.91082 6.36116C2.97679 5.55375 3.09636 5.14084 3.24313 4.8528C3.59626 4.15974 4.15974 3.59626 4.8528 3.24313C5.14084 3.09636 5.55375 2.97679 6.36116 2.91082C7.19008 2.8431 8.26247 2.84167 9.84 2.84167Z" fill="white"/>
</svg>
