<svg width="629" height="879" viewBox="0 0 629 879" fill="none" xmlns="http://www.w3.org/2000/svg">
<g opacity="0.3" clip-path="url(#clip0_150_3755)">
<path d="M182.875 -44C126.361 107.703 81.764 291.902 199.188 358.092C358.757 448.039 494.768 298.861 685.5 277.17" stroke="#B4D1C3" stroke-width="4" stroke-dasharray="28.29 28.29"/>
<path d="M391.165 923C364.315 786.458 367.417 625.84 502.655 561.528C557.644 535.379 613.313 530.163 667.5 537.14" stroke="#B4D1C3" stroke-width="4" stroke-dasharray="28.29 28.29"/>
<path d="M684 150.152C449.563 195.389 337.796 313.299 281.5 246.5C247.327 205.952 285.099 85.8753 333.89 -34.4999" stroke="#CBE3D7" stroke-width="184"/>
<path d="M536.807 928C503.344 831.399 475.234 691.994 576.319 661C613.142 649.71 657.126 656.454 705.5 671.849" stroke="#CBE3D7" stroke-width="184"/>
<path d="M694.5 16.3425C530.681 56.6205 403.5 118.5 403.5 118.5C403.5 118.5 426.502 45.4488 484.407 -65.5001" stroke="#B4D1C3" stroke-width="4" stroke-dasharray="28.29 28.29"/>
</g>
<defs>
<clipPath id="clip0_150_3755">
<rect width="629" height="879" fill="white"/>
</clipPath>
</defs>
</svg>
