<svg width="1437" height="383" viewBox="0 0 1437 383" fill="none" xmlns="http://www.w3.org/2000/svg">
<g opacity="0.16" clip-path="url(#clip0_140_3742)">
<path d="M1410.89 72.7266C1307.21 42.9443 856.354 -207.71 739.305 -0.0603249C622.256 207.589 871.495 379.152 825.992 655.773C780.49 932.394 488.361 1067.34 386.977 991.07C285.592 914.799 648.323 617.043 514.402 335.428C380.481 53.8135 -131.189 290.483 -131.189 290.483" stroke="#EB964F" stroke-width="4" stroke-dasharray="28.29 28.29"/>
<path d="M1473.47 272.722C1369.79 242.94 981.258 -110.794 875.469 51.6029C769.679 214 1080.79 280.805 1091.7 653.837C1102.61 1026.87 415.386 1301.85 275.267 1077.67C135.148 853.48 557.789 722.25 423.869 440.635C289.948 159.02 -4.90368 357.652 -4.90368 357.652" stroke="#EB964F" stroke-width="4" stroke-dasharray="28.29 28.29"/>
<path d="M1558.72 480.128C1312.24 459.829 1158.64 98.0492 1067.86 188.927C977.089 279.805 1224.88 365.413 1253 621.407C1281.12 877.401 1261.58 1005.86 1261.58 1005.86" stroke="#EB964F" stroke-width="4" stroke-dasharray="28.29 28.29"/>
</g>
<defs>
<clipPath id="clip0_140_3742">
<rect width="383" height="1437" fill="white" transform="translate(1437 6.28133e-05) rotate(90)"/>
</clipPath>
</defs>
</svg>
