<svg width="20" height="20" viewBox="0 0 20 20" fill="none" xmlns="http://www.w3.org/2000/svg">
<path d="M17.4266 10.2357C17.2769 10.7642 16.9774 11.2223 16.5841 11.5251C16.27 11.7672 15.9134 11.8939 15.5626 11.8939C15.4305 11.8939 15.3014 11.8763 15.1737 11.8402C14.7099 11.7075 14.3341 11.3391 14.1434 10.8292C13.9687 10.3644 13.9569 9.8175 14.1067 9.28881C14.2578 8.76028 14.5572 8.30222 14.9491 7.99944C15.3806 7.66688 15.8943 7.55194 16.3596 7.68434C16.8234 7.81703 17.2006 8.18541 17.3914 8.69531C17.5645 9.16016 17.5777 9.707 17.4266 10.2357ZM7.61348 8.89978C8.16536 8.89978 8.69226 8.59259 9.05917 8.05659C9.39232 7.57062 9.57579 6.93409 9.57579 6.26394C9.57579 5.59319 9.39232 4.95666 9.05917 4.47069C8.69223 3.93484 8.16532 3.62762 7.61348 3.62762C7.06014 3.62762 6.53326 3.93481 6.16632 4.47069C5.83464 4.95666 5.65117 5.59319 5.65117 6.26394C5.65117 6.93409 5.83464 7.57062 6.16632 8.05659C6.53326 8.59259 7.06017 8.89978 7.61348 8.89978ZM12.3865 8.89978C12.9398 8.89978 13.4667 8.59259 13.8336 8.05659C14.1653 7.57062 14.3488 6.93409 14.3488 6.26394C14.3488 5.59319 14.1653 4.95666 13.8336 4.47069C13.4667 3.93484 12.9398 3.62762 12.3865 3.62762C11.8346 3.62762 11.3077 3.93481 10.9408 4.47069C10.6076 4.95666 10.4242 5.59319 10.4242 6.26394C10.4242 6.93409 10.6076 7.57062 10.9408 8.05659C11.3077 8.59259 11.8346 8.89978 12.3865 8.89978ZM5.89332 9.28916C5.74217 8.76034 5.44276 8.30228 5.05085 7.99947C4.61935 7.66691 4.10567 7.55197 3.64039 7.68438C3.17514 7.81706 2.79939 8.18544 2.60857 8.69534C2.43539 9.16016 2.4222 9.70703 2.57336 10.2357C2.72307 10.7643 3.02248 11.2223 3.41579 11.5251C3.72989 11.7673 4.08654 11.8939 4.43732 11.8939C4.56795 11.8939 4.69857 11.8763 4.82479 11.8402C5.29004 11.7075 5.66579 11.3391 5.85657 10.8292C6.03129 10.3644 6.04304 9.81753 5.89332 9.28916ZM12.8796 10.578C12.0753 9.73256 11.0538 9.26731 9.99998 9.26731C8.94617 9.26731 7.92317 9.73256 7.12179 10.578C6.35564 11.3842 5.82142 12.5029 5.61592 13.7285C5.48529 14.5104 5.72304 15.2629 6.27051 15.7929C6.83998 16.3444 7.58411 16.5119 8.31211 16.253C8.85076 16.0607 9.41876 15.9633 9.99998 15.9633C10.5812 15.9633 11.1492 16.0608 11.6879 16.253C11.9124 16.3328 12.1384 16.3723 12.3601 16.3723C12.8576 16.3723 13.3346 16.1745 13.7279 15.7929C14.2769 15.2629 14.5146 14.5104 14.384 13.7285C14.1785 12.5028 13.6443 11.3842 12.8796 10.578Z" fill="white"/>
</svg>
